<?xml version="1.0" standalone="no"?>
<!DOCTYPE svg PUBLIC "-//W3C//DTD SVG 1.1//EN" "http://www.w3.org/Graphics/SVG/1.1/DTD/svg11.dtd" >
<svg>
<metadata>
Created by FontForge 20110222 at Tue Jul 15 23:13:28 2014
 By Orthosie Webhosting
(C)2000 Piekos. www.piekosarts.com
</metadata>
<defs>
<font id="BelizariusRegular" horiz-adv-x="297" >
  <font-face 
    font-family="BelizariusRegular"
    font-weight="400"
    font-stretch="normal"
    units-per-em="1024"
    panose-1="2 11 6 3 5 3 2 2 2 4"
    ascent="819"
    descent="-205"
    x-height="1053"
    cap-height="1051"
    bbox="-16 0 448 1257"
    underline-thickness="0"
    underline-position="0"
    unicode-range="U+0020-201D"
  />
<missing-glyph horiz-adv-x="512" 
d="M64 0v1257h384v-1257h-384zM128 64h256v1129h-256v-1129z" />
    <glyph glyph-name=".notdef" horiz-adv-x="512" 
d="M64 0v1257h384v-1257h-384zM128 64h256v1129h-256v-1129z" />
    <glyph glyph-name=".null" horiz-adv-x="0" 
 />
    <glyph glyph-name="nonmarkingreturn" horiz-adv-x="311" 
 />
    <glyph glyph-name="space" unicode=" " horiz-adv-x="311" 
 />
    <glyph glyph-name="exclam" unicode="!" horiz-adv-x="284" 
d="M82 510l-13 7l-6 10v12l3 19l-5 25l50 316l25 105l6 15l8 10l13 6h13l11 -6l7 -10l3 -13v-18l-19 -115l-25 -114l-57 -240zM37 265l-14 3l-8 9l-4 13l-5 35l3 34l10 34l8 18l12 17l11 14l13 6l13 -2l12 -8l7 -14l5 -20l5 -29l-2 -31l-10 -37l-7 -12l-12 -6l-13 -1l-9 -2
l-4 -9z" />
    <glyph glyph-name="quotedbl" unicode="&#x22;" horiz-adv-x="271" 
d="M152 743l-13 10l-4 16l-8 33l-5 32l-4 64l3 46l6 46l3 14l8 12l14 9l23 13l14 5h11l7 -8l-2 -11l-13 -37l-10 -37l-7 -37l-3 -37l2 -104l-3 -12l-6 -11zM34 743l-13 10l-4 16l-8 33l-5 32l-4 64l3 46l6 46l3 14l8 12l14 9l23 13l14 5h11l7 -8l-2 -11l-13 -37l-10 -37
l-7 -37l-3 -37l2 -104l-3 -12l-6 -11z" />
    <glyph glyph-name="numbersign" unicode="#" horiz-adv-x="410" 
d="M135 582l14 2l25 11l26 10l11 5l7 9l1 12l10 137l-2 6l-9 1l-11 -4l-23 -8l-22 -10l-12 -5l-7 -9l-1 -12l-4 -64l-6 -65v-9zM211 532l-10 2l-11 -2l-21 -6l-20 -10l-13 -6l-8 -10l-3 -12l-7 -193l-3 -11l-10 -8l-12 -2l-13 5l-10 11l-2 13l-5 145l-2 9l-6 4l-11 1l-16 4
l-14 7l-10 12l-2 12l6 7l10 6l15 7l16 9l9 11l2 12l5 154l-5 7l-21 7l-12 14l-9 18l-2 12l7 8l11 5l17 6l12 5l7 10l3 13l3 74l9 74l4 11l8 6l10 4l10 11l11 6h13l11 -4l7 -9v-11l-5 -31l-4 -30l-3 -73l3 -9l7 -3l10 3l24 7l25 5l11 3l7 8l1 11l7 112l5 22l7 16l4 11l8 8
l13 1l10 -4l7 -10l1 -11l-10 -73l-5 -72l1 -11l6 -6l11 -2l15 -3l11 -7l8 -10v-12l-9 -9l-12 -5l-19 -3l-11 -3l-7 -8l-1 -11l-5 -127l4 -6l9 -4l12 -3l13 -3l7 -8l6 -12l5 -14l-1 -11l-10 -10l-11 -7l-31 -11l-5 -9v-12l1 -87l6 -102l-4 -11l-8 -9l-5 -12l-2 -9l-5 -1
l-6 -1l-6 -2l-8 2l-5 9l-3 14l-9 97l-1 96z" />
    <glyph glyph-name="dollar" unicode="$" horiz-adv-x="372" 
d="M-2 290l2 8l7 5l11 1l99 4l18 3l20 13l20 26l9 18l6 18l21 201l5 100l-2 113l-7 9l-12 6l-18 4h-45l-20 8l-20 16l-16 24l-9 36v28l5 29l9 33l16 32l12 16l17 12l12 4l7 7l3 12l7 31l5 17l11 11l13 5l14 -3l12 -10l7 -15l6 -37l6 -7l11 -4l14 -6l16 -12l9 -8l3 -10
l-3 -12l-8 -7l-13 -2l-28 -1l-27 -4l-35 -11l-17 -10l-18 -13l-16 -13l-8 -16l-2 -14v-17l10 -18l16 -16l15 -9h15l32 2l33 7h14l12 -8l7 -12l11 -27l12 -27l5 -31l-5 -23l-12 -28l-17 -157l-8 -159l-3 -25l-6 -26l-8 -26l-9 -26l-7 -16l-14 -12l-24 -20l-14 -16l-13 -7
l-6 -8l-2 -13l4 -63l-3 -13l-9 -11l-11 -4l-12 4l-10 11l-4 14l-5 71l-3 13l-6 10l-14 8l-24 14l-24 8l-15 8z" />
    <glyph glyph-name="percent" unicode="%" horiz-adv-x="448" 
d="M255 517l3 -8v-9l-5 -39l-16 -34l-10 -14l-9 -5h-7l-3 7l1 10l3 15l9 26l12 25l12 17zM177 967l-12 -6l-10 -15l-17 -27l-10 -28l-11 -39l-1 -9l2 -8l7 -2l10 5l17 11l10 15l23 71l2 14l-3 12zM295 931l2 1l6 11l10 26l11 26l13 26l15 23l14 29l3 16l4 9l10 4l10 -3
l7 -10l1 -11l-3 -15l-183 -411l-168 -435l-11 -4l-13 4l-11 11l-5 13l2 14l316 813l7 -4l3 -10l-2 -11l-20 -49l-16 -50zM131 985l29 4l15 8h14l12 -8l10 -14l7 -18l3 -33l-5 -32l-10 -33l-16 -25l-24 -22l-28 -18l-23 -4l-14 3l-11 9l-7 12l-6 18l-1 27l22 56l23 56z
M254 568l-16 -6l-22 -20l-17 -24l-17 -28l-12 -28l-5 -38l4 -32l7 -15l11 -13l16 -7l22 -1l17 5l15 13l9 15l13 38l9 38l5 45l-6 24l-8 16l-12 12z" />
    <glyph glyph-name="ampersand" unicode="&#x26;" horiz-adv-x="322" 
d="M113 133l-7 -1l-11 5l-7 11l-3 13l-2 45v47l-1 12l-8 9l-14 10l-14 11l-16 14l-11 15l-10 15l-8 23l7 156l4 34l11 68l36 136l2 23l-5 22l-3 30l-1 31l4 62l5 24l13 25l14 22l17 13l21 8l12 5l7 9l2 11v61l3 12l10 7h12l10 -6l5 -11l2 -12l-4 -60l3 -12l9 -8l13 -15
l5 -11l-2 -8l-10 -4l-11 1l-20 3l-16 -1l-12 -6l-11 -14l-8 -19l-11 -43l-5 -44v-13l4 -10l9 -6h12l42 5h18l13 -5l9 -11l2 -10l-5 -9l-10 -5l-11 -4l-9 -10l-10 -9l-12 -3l-21 -4l-14 -3l-10 -6l-7 -12l-6 -17l-28 -329l4 -29l13 -25l9 -11l13 -4h15l18 10l16 7l16 -2
l18 -10l11 -10l4 -12l-5 -11l-11 -9l-16 -9l-35 -10l-9 -2l-4 -7l-1 -11l-10 -86v-14z" />
    <glyph glyph-name="quotesingle" unicode="'" horiz-adv-x="208" 
d="M-2 743l-11 6l-3 11l1 12l33 104l8 37l5 37l1 37l-1 37l2 11l8 8h12l12 -5l19 -13l11 -9l4 -12v-14l-8 -46l-12 -46l-24 -64l-15 -32l-17 -33l-10 -16z" />
    <glyph glyph-name="parenleft" unicode="(" horiz-adv-x="335" 
d="M182 204l-3 -8l-9 -4l-11 2l-10 8l-23 18l-15 11l-14 15l-20 25l-17 27l-20 44l-8 22l-6 24l-12 72l-6 72l-2 36l1 36l6 73l10 61l15 61l19 60l22 61l15 27l17 27l42 54l17 18l15 11l24 12l15 11l14 3l11 -7l7 -11l1 -12l-5 -13l-12 -9l-15 -11l-16 -12l-21 -24l-61 -124
l-25 -54l-21 -54l-9 -27l-7 -27l-5 -27l-4 -26l-4 -66l2 -65l6 -65l12 -65l7 -26l9 -25l11 -25l15 -25l10 -16l12 -16l21 -18l17 -14z" />
    <glyph glyph-name="parenright" unicode=")" horiz-adv-x="303" 
d="M-2 214l1 11l6 10l12 12l16 17l12 17l12 23l10 23l17 46l23 93l22 100l13 100l6 100l1 50l-1 51l-2 25l-5 26l-8 25l-11 26l-12 26l-18 25l-11 17l-2 12l3 10l10 4l11 4l12 8l14 1l17 -7l14 -11l7 -15l9 -35l10 -34l8 -45l5 -46l3 -90l-5 -91l-10 -90l-21 -128l-16 -64
l-21 -63l-13 -28l-15 -27l-35 -55l-12 -16l-15 -12l-18 -11l-11 -3z" />
    <glyph glyph-name="asterisk" unicode="*" horiz-adv-x="309" 
d="M105 953l9 4l7 11l19 36l13 17l11 10h12l10 -7l4 -12l-4 -12l-8 -18l-6 -12l-2 -10l5 -4l11 -1l11 -2l13 -6l9 -12l1 -11l-7 -9l-9 -4l-33 -13l-11 -3l-6 -5l1 -8l8 -10l21 -29l18 -29l5 -14l-3 -12l-9 -8l-13 -4h-14l-11 7l-8 12l-9 18l-10 18l-7 11l-7 5l-8 -5l-5 -11
l-13 -32l-5 -14l-9 -10l-23 -23l-12 -5l-11 3l-6 10l-2 11l4 20l14 21l10 23l5 10l-2 6h-6l-10 -3l-12 -2l-11 1l-8 8l-5 12l2 13l7 9l12 6l23 10l11 6l7 6v9l-7 11l-11 13l-15 15l-7 14l1 11l8 10l11 5h13l10 -6l8 -11l18 -24z" />
    <glyph glyph-name="plus" unicode="+" horiz-adv-x="353" 
d="M140 728l5 5l3 11l8 18l8 10l9 3l12 -3l9 -8l4 -12l-3 -12l-8 -20l-6 -20l-7 -40v-12l3 -9l8 -3l10 -1l36 4l14 -1l13 -9l7 -12l-2 -12l-10 -10l-13 -5l-53 -16l-13 -5l-8 -8l-3 -13l-8 -94l-7 -11l-13 -8l-12 -2l-10 7l-7 12l-2 15v31l1 32v13l-4 7l-8 3h-10l-44 -6h-14
l-11 4l-7 11l-2 13l6 11l11 9l14 6l31 7l29 10l10 6l6 10l1 12l-1 33l-3 34v11l7 7h10z" />
    <glyph glyph-name="comma" unicode="," horiz-adv-x="208" 
d="M-2 145l-11 6l-3 11l1 12l33 104l8 37l5 37l1 37l-1 37l2 12l8 7l12 1l12 -6l19 -12l11 -10l4 -12v-14l-8 -45l-12 -47l-24 -63l-15 -33l-17 -32l-10 -17z" />
    <glyph glyph-name="hyphen" unicode="-" horiz-adv-x="353" 
d="M10 602l17 7l132 20l33 7l23 -5l20 -4l17 -3l11 -8l5 -12l-2 -11l-8 -10l-12 -5l-26 -8l-94 -9l-47 -2l-47 2l-14 3l-9 8l-4 13z" />
    <glyph glyph-name="hyphen" unicode="&#x2010;" horiz-adv-x="353" 
d="M10 602l17 7l132 20l33 7l23 -5l20 -4l17 -3l11 -8l5 -12l-2 -11l-8 -10l-12 -5l-26 -8l-94 -9l-47 -2l-47 2l-14 3l-9 8l-4 13z" />
    <glyph glyph-name="period" unicode="." horiz-adv-x="227" 
d="M54 432l11 -4l9 -7l11 -12l6 -17l4 -31l-7 -29l-8 -29l-8 -21l-11 -13l-16 -7l-15 2l-13 10l-9 13l-4 16l3 40l11 33l16 33l5 12z" />
    <glyph glyph-name="slash" unicode="/" horiz-adv-x="448" 
d="M261 912l6 3l5 10l13 32l17 31l41 75l10 7l10 -1l7 -5v-11l-4 -10l-20 -37l-20 -39l-88 -187l-76 -188l-65 -187l-53 -187l-7 -13l-9 -8l-11 -2l-9 5l-5 11l-2 12v25l130 406l157 429l9 2l9 -5l3 -9l-3 -11z" />
    <glyph glyph-name="zero" unicode="0" 
d="M101 272l9 12l8 32l25 176l14 175l2 176l-11 176l-8 29l-4 11l-7 6l-8 -4l-7 -10l-11 -11l-7 -12l-3 -16l-24 -160l-15 -160l-3 -80v-40l1 -40l5 -80l9 -80l8 -40l11 -40l5 -11zM136 196l-10 -6l-13 -1l-25 4l-14 5l-13 11l-8 15l-16 36l-8 35l-18 151l-9 151l2 151
l16 150l10 74l8 37l12 37l13 27l12 14l13 13l22 14l19 7l15 -1l15 -11l11 -14l11 -31l10 -51l5 -52l3 -104v-161l-10 -161l-18 -160l-28 -161z" />
    <glyph glyph-name="one" unicode="1" horiz-adv-x="214" 
d="M65 904l-6 -2l-7 -9l-8 -11l-8 -13l-10 -7l-11 2l-8 9l-3 13l3 16l31 54l14 27l13 27l5 12l8 7l10 -2l11 -5l10 -11l3 -13l-13 -722l-8 -5l-11 -1l-9 6l-6 11l-3 13l-5 148v147z" />
    <glyph glyph-name="two" unicode="2" horiz-adv-x="322" 
d="M202 254l-3 -6l-9 -9l-13 -6l-24 -6l-25 -5l-41 -2l-42 5l-18 5l-13 9l-7 15l-3 15l12 276l34 298l10 18l12 14l12 13l16 13l21 9l19 12l21 15l21 20l14 18l6 18l-3 12l-8 8l-11 3l-18 3l-33 -2l-32 -6l-16 -5l-13 3l-12 11l-5 13l1 11l7 8l11 3l32 3l31 7l35 5l36 -12
l19 -12l14 -17l9 -24l2 -33l-2 -33l-10 -29l-11 -15l-14 -15l-18 -13l-38 -16l-20 -10l-19 -7l-14 -7l-10 -10l-4 -14l-25 -249l-14 -264l6 -12l11 -9l15 -6l31 -4l26 5l26 9l16 2l11 -4z" />
    <glyph glyph-name="three" unicode="3" horiz-adv-x="335" 
d="M216 877l4 -10l7 -12l12 -34l8 -97l-1 -49l-3 -49l-16 -169l-14 -85l-19 -84l-13 -28l-11 -14l-18 -15l-17 -11l-17 -4h-31l-29 13l-17 13l-17 16l-18 23l-6 23l1 33l4 11l7 7h11l10 -7l8 -12l5 -33l12 -19l13 -11l16 -3l17 3l15 7l15 14l20 27l13 32l24 201l5 101l1 51
l-1 50l-2 26l-4 26l-7 15l-12 10l-14 5l-22 3l-19 -3l-15 4l-12 12l-3 13l5 12l9 15l9 8l13 1h17l19 4l19 14l15 18l5 18l-3 25l-5 14l-11 11l-13 7l-21 1l-50 -12h-25l-11 4l-8 8v11l7 9l12 5l59 17l22 5l23 4l18 -6l24 -16l16 -22l11 -32l1 -28l-2 -27l-5 -20l-11 -20z
" />
    <glyph glyph-name="four" unicode="4" horiz-adv-x="328" 
d="M19 1039l8 -3l6 -10l3 -12l8 -23l5 -23l3 -46l3 -11l9 -10l12 -3l13 -2l10 3l6 10l2 11l3 44l-1 45l5 13l10 9l5 9l2 11l7 8l9 1l9 -7l8 -10l3 -15l-2 -108l2 -9l6 -4l10 2l34 6l33 4h13l9 -8l3 -12l-5 -12l-12 -11l-15 -6l-29 -7l-29 -5l-13 -5l-8 -10l-3 -13l-52 -609
l-10 -7h-12l-17 3l-10 5l-7 10v12l39 599l-8 3h-11l-34 -1l-18 5l-13 10l-8 16l-2 19l7 58l-3 39v26l5 11z" />
    <glyph glyph-name="five" unicode="5" horiz-adv-x="360" 
d="M82 895l6 -2l10 1l32 6l31 5h25l24 -3l23 -8l19 -15l13 -20l5 -24l-34 -253l-42 -253l-11 -50l-7 -25l-8 -25l-10 -16l-16 -13l-23 -10l-26 -5h-27l-31 2l-17 8l-11 13l-5 14v24l-2 25v12l4 10l9 4l10 -2l9 -9l3 -13l3 -25l5 -11l10 -6l11 1l15 4l19 13l12 17l13 29
l48 234l34 235v47l-4 13l-10 9l-13 4l-24 3l-25 5l-80 -17l-11 3l-8 9l-3 12l8 37l4 38l1 38l-4 55l2 10l8 6l10 2l190 23l13 -3l8 -11l3 -13l-3 -11l-10 -8l-12 -3l-31 -5l-32 -3l-64 -3l-12 -2l-8 -7l-3 -11l-4 -36l-9 -35v-15z" />
    <glyph glyph-name="six" unicode="6" horiz-adv-x="322" 
d="M190 885l-17 5l-35 -2l-12 -2l-9 -8l-10 -18l-6 -24l-61 -610l10 -15l16 -14l15 -5l16 3l15 8l10 15l12 32l15 86l9 85l-6 30v17l8 14l7 23l24 177l9 176l-2 14zM132 943l6 -3h10l35 -4l20 -3l15 -8l11 -13l7 -18l6 -24l4 -23v-47l-37 -312l-48 -310l-6 -17l-8 -12
l-13 -5l-13 -1l-26 1l-27 7l-23 11l-24 14l-12 10l-5 14l-2 15l25 407l44 409l13 31l15 18l19 11l72 16h25l16 -7l10 -10l3 -12l-3 -14l-5 -10l-10 -6l-12 -2l-28 2l-13 -1l-11 -8l-8 -13l-10 -24l-7 -22l-5 -23v-14z" />
    <glyph glyph-name="seven" unicode="7" horiz-adv-x="309" 
d="M197 996l-6 3l-11 -2l-30 -6l-31 -2h-15l-10 4l-6 11l-6 13l-4 14l2 12l9 7l12 3l133 8l11 -2l10 -9l5 -12l1 -14l-226 -797l-11 -6l-11 3l-7 8l-2 11l2 12z" />
    <glyph glyph-name="eight" unicode="8" horiz-adv-x="284" 
d="M106 1066l-16 -10l-8 -14l-16 -33l-2 -40l3 -109l2 -12l7 -8l11 -4l16 -1l14 4l12 9l5 13l5 25l1 25l-2 63l-2 32l-5 31l-5 13l-8 11zM106 213l10 12l7 23l9 77l4 76l-3 154l-5 80l-5 40l-6 39l-3 13l-8 9l-11 3l-8 -7l-5 -10l-11 -40l-5 -39l-9 -88l-4 -88l4 -88l5 -44
l8 -45l6 -27l11 -28l6 -12zM125 147l-19 4l-18 14l-17 17l-15 18l-19 30l-14 29l-14 30l-6 30l-3 110l3 109l11 110l19 108l2 21l-7 20l-6 19l-7 37l-3 49l3 48l7 48l13 49l7 24l11 16l17 11l20 7l45 -1l13 -4l10 -8l7 -13l5 -21l6 -21l4 -43l1 -43l-7 -87l-6 -34l-11 -35
l-8 -17l-1 -17l7 -16l13 -20l7 -19l18 -315l-1 -50l-3 -50l-8 -50l-9 -33l-16 -32l-12 -18z" />
    <glyph glyph-name="nine" unicode="9" horiz-adv-x="271" 
d="M134 1055l-16 -6l-11 -13l-15 -27l-6 -23l-5 -24l-4 -47l2 -43l4 -16l7 -12l10 -4l9 6l10 12l16 27l5 25l1 26l5 105l-5 10zM118 780l-15 -4l-11 -5l-16 -2l-16 4l-15 11l-12 17l-12 21l-16 48l-3 27l3 40l6 39l8 40l13 39l4 16l8 12l12 8l18 7l18 8l24 5l23 -8l20 -8
l16 -1l13 -4l10 -11l1 -14l-25 -443l-6 -221l3 -232l-8 -11l-13 -9l-12 -6l-11 2l-6 10l-3 12l7 602z" />
    <glyph glyph-name="colon" unicode=":" horiz-adv-x="208" 
d="M54 762l11 -4l9 -7l11 -11l6 -18l4 -31l-7 -29l-8 -28l-8 -21l-11 -13l-16 -8l-15 3l-13 9l-9 14l-4 16l3 39l11 34l16 32l5 12zM54 428l11 -4l9 -7l11 -11l6 -18l4 -31l-7 -29l-8 -29l-8 -21l-11 -13l-16 -7l-15 2l-13 10l-9 13l-4 16l3 40l11 33l16 33l5 12z" />
    <glyph glyph-name="semicolon" unicode=";" horiz-adv-x="208" 
d="M-2 145l-11 6l-3 11l1 12l33 104l8 37l5 37l1 37l-1 37l2 12l8 7l12 1l12 -6l19 -12l11 -10l4 -12v-14l-8 -45l-12 -47l-24 -63l-15 -33l-17 -32l-10 -17zM54 762l11 -4l9 -7l11 -11l6 -18l4 -31l-7 -29l-8 -28l-8 -21l-11 -13l-16 -8l-15 3l-13 9l-9 14l-4 16l3 39
l11 34l16 32l5 12z" />
    <glyph glyph-name="less" unicode="&#x3c;" horiz-adv-x="417" 
d="M265 1072l4 -5v-9l-3 -12l-2 -10l1 -5l4 2l5 10l10 21l6 14l8 9h10l8 -7l2 -11l-4 -13l-228 -450l4 -10l9 -7l20 -13l19 -13l21 -17l16 -20l69 -106l64 -107l14 -34l3 -36l4 -14l-2 -11l-9 -9l-11 -2l-12 6l-12 11l-27 37l-2 15l-5 11l-10 11l-13 23l-15 24l-36 48
l-30 36l-33 33l-33 32l-58 48l-9 13l-3 15l4 11l3 12l-2 13l3 12l9 7l11 6l8 13z" />
    <glyph glyph-name="equal" unicode="=" horiz-adv-x="353" 
d="M17 527l10 7l11 2l44 13l42 10l99 17l13 -6l10 -11v-11l-8 -10l-12 -4l-44 -5l-44 -8l-45 -11l-44 -15l-14 -1l-11 6l-8 10zM230 663l2 -10l6 -10v-11l-8 -9l-13 -4l-68 -15l-69 -11l-56 3l-10 3l-8 11l-1 12l7 10l12 7l97 40l34 11l35 10l35 8h13l13 -8l8 -11v-10l-6 -8
l-10 -5z" />
    <glyph glyph-name="greater" unicode="&#x3e;" horiz-adv-x="417" 
d="M73 1072l11 -13l218 -428l10 -6l9 -7l3 -12l-2 -13l3 -12l4 -11l-3 -15l-9 -13l-58 -48l-33 -32l-33 -33l-30 -36l-35 -48l-16 -24l-13 -23l-10 -11l-5 -11l-2 -15l-12 -18l-15 -19l-11 -11l-13 -6l-11 2l-9 9l-2 11l4 14l3 36l15 34l63 107l70 106l16 20l20 17l19 13
l20 13l9 7l5 10l-5 12l-227 451l2 11l7 7h10l8 -9l7 -14l9 -21l6 -10l3 -2l1 5l-2 10l-3 12v9z" />
    <glyph glyph-name="question" unicode="?" horiz-adv-x="366" 
d="M76 964l1 11l8 11l14 10l18 11l19 8l38 8l39 4h27l20 -8l13 -11l7 -14l3 -17l-27 -217l-12 -77l-9 -39l-11 -39l-7 -15l-10 -9l-11 -2l-11 5l-12 8h-14l-16 -3l-11 -3l-8 -10l-3 -13l-5 -25l-2 -25l-2 -17l-7 -13l-12 -9l-11 -2l-11 7l-7 11l-3 14l6 92l7 17l14 13l15 10
h34l15 10l10 14l13 28l19 83l8 42l7 41l2 38l-2 38l-4 17l-9 12l-13 7l-21 7l-16 -1l-18 -9l-27 -8h-13zM119 376l-1 -16l-16 -36l-10 -48l-8 -9l-12 -4h-12l-10 6l-6 11l-7 11l-22 11l-7 12l-2 13l7 18l11 22l13 21l12 14l14 8l16 1l12 -3l9 -8l8 -9z" />
    <glyph glyph-name="at" unicode="@" horiz-adv-x="372" 
d="M225 498l2 10l26 224l10 113l3 113l-8 27l-6 12l-10 9l-11 3l-33 -1l-34 -3l-20 -5l-19 -7l-15 -7l-10 -14l-7 -24l-16 -153l1 -6l4 2l7 8l16 29l11 14l15 9h18l26 -10l23 -15l16 -18l10 -22l5 -26v-28l-12 -108l-1 -28v-27l2 -28l4 -27l1 -11zM137 511l10 10l11 23l9 22
l5 25l3 23l4 151l-2 11l-7 11l-10 4l-12 -4l-9 -9l-4 -13l-7 -52l-4 -51l-2 -103l4 -31l4 -11zM182 494l-6 -3l-7 -10l-12 -13l-15 -8h-18l-15 6l-10 13l-9 16l-9 24l-7 22l-9 47l-3 12l-2 6l-1 -4v-11l-3 -37l-1 -37l3 -110l7 -112l5 -15l11 -11l15 -7l21 -10l11 -10l5 -11
l-3 -11l-10 -8l-13 -5l-26 -3l-25 6l-19 13l-14 19l-5 22l-15 130l-5 129l1 130l11 128l10 53l12 51l26 102l10 21l14 19l12 15l15 8l21 7l21 5l42 -2l43 -6l37 -13l15 -12l10 -16l9 -29l1 -67l-2 -66l-8 -133l-29 -265l-9 -33l-7 -12l-11 -8h-13l-13 8l-10 13l-17 31l-4 29
z" />
    <glyph glyph-name="A" unicode="A" horiz-adv-x="404" 
d="M20 313l-12 6l-4 10l1 13l16 71l14 70l132 535l10 7l11 -3l7 -9l3 -12l1 -29l24 -99l31 -101l8 -30l6 -31l10 -61l14 -124l16 -110l23 -112l6 -16l-1 -13l-8 -8l-11 -6l-13 -5l-12 3l-9 10l-4 12l-63 428l-6 8l-11 4h-13l-52 -12l-8 -6l-2 -12l-87 -369zM166 897l-6 -11
l-4 -19l-14 -80l3 -7l9 -2l16 -2h22l6 5l1 10l-3 12l-10 39l-15 50z" />
    <glyph glyph-name="B" unicode="B" horiz-adv-x="316" 
d="M178 773l3 -4l10 -5l19 -13l12 -14l7 -19l3 -36v-36l-23 -154l-34 -154l-8 -18l-14 -14l-23 -15l-22 -10l-21 -9l-44 -15h-19l-15 7l-8 10l-1 14l21 741l8 8l9 -2l10 -8l15 -10l44 -14l43 -18l26 -14l22 -23l9 -20l3 -29l-3 -44l-3 -21l-5 -22l-14 -25zM56 315h13l26 10
l15 11l13 13l8 18l33 156l12 78l7 78l-1 24l-3 12l-8 9l-11 5l-52 11l-11 1l-8 -3l-3 -9l1 -10l-3 -161l-7 -161l-4 -15l-12 -14l-7 -15l-2 -21v-10zM79 962l-2 -14l9 -151l4 -6l10 -1l12 3l15 5l14 8l10 15l12 33l2 28v27l-2 13l-6 11l-12 8l-22 10l-22 9l-11 3z" />
    <glyph glyph-name="C" unicode="C" horiz-adv-x="303" 
d="M196 910l-13 8l-9 11l-6 15l-8 13l-13 6l-16 3l-13 -1l-12 -8l-7 -13l-6 -16l-11 -99l-5 -100v-49l1 -50l6 -111l-6 -8l-10 -5l-11 -1l-6 -5l-2 -10l5 -9l7 -11v-45l1 -32l4 -21l14 -19l31 -30l14 -11l14 -4l13 6l13 12l8 18l3 13l8 10l13 5l12 -2l8 -8l5 -11l-1 -12
l-7 -27l-11 -17l-12 -14l-9 -12l-13 -10l-15 -4l-34 2l-31 3l-29 16l-23 17l-16 22l-10 19l-5 19l9 581l7 26l18 29l18 16l20 8l23 4l24 1l43 -6l21 -9l13 -14l9 -17l6 -34v-13l-5 -10z" />
    <glyph glyph-name="D" unicode="D" 
d="M84 997l5 9l5 8l9 2l11 -4l11 -10l9 -15l9 -16l31 -40l7 -23l15 -203l3 -102l-5 -102l-5 -26l-8 -26l-21 -52l-16 -32l-20 -33l-13 -17l-15 -14l-25 -18l-24 -13l-16 -6l-13 3l-10 8l-4 13l3 11l12 334v346l6 12l12 7l13 2l20 -3h14zM66 355l13 13l13 17l11 18l18 34
l12 32l8 32l2 44l1 45l-5 165l-18 164l-4 14l-10 11l-15 7l-10 5l-8 1l-3 -6l1 -11l12 -71l7 -72l1 -36v-36l-3 -36l-5 -36l-20 -139l-6 -104l1 -36l1 -10l1 -8z" />
    <glyph glyph-name="E" unicode="E" horiz-adv-x="316" 
d="M235 946l-5 -10l-11 -8l-12 -4l-54 -4l-53 -1l-24 -2l-9 -4l-4 -7v-11l4 -23l3 -38l3 -9l6 -4l11 2l47 6l28 2l29 -2l14 -5l9 -7l3 -11v-12l-4 -13l-10 -10l-14 -4l-49 -3l-25 -1l-24 -3l-12 -4l-6 -7v-122l-2 -111l-10 -235l7 -10l12 -8l18 -5h43l33 -3l12 -5l8 -10
l1 -12l6 -12l7 -10v-12l-7 -11l-13 -6l-14 -3h-50l-24 1l-25 3l-28 9l-25 21l-14 15l-6 16l22 329l1 165l-7 165l2 29l9 17l13 13l18 6l64 6l64 3l24 -5l11 -5z" />
    <glyph glyph-name="F" unicode="F" 
d="M210 819l-12 -13l-11 -5l-25 -3l-32 -3l-33 -6l-11 -4l-6 -10l-2 -11l-15 -469l-6 -14l-15 -15l-13 -5l-13 2l-10 11l-4 14l1 25v75l18 573l7 22l4 18l6 11l10 6l12 2l22 -4l22 -3l45 -1h41l16 -5l11 -12l5 -12l-4 -11l-10 -6l-12 -1l-61 3l-23 -5l-15 -9l-10 -15l-6 -18
l-3 -36l3 -36l2 -9l6 -4l11 1l39 7l39 1l15 -2l10 -7z" />
    <glyph glyph-name="G" unicode="G" horiz-adv-x="316" 
d="M101 857l6 8l11 5l13 3l33 3l33 -1l23 -2l13 -8l10 -12l1 -14l-10 -128l-2 -128l2 -257l-3 -42l-20 -50l-6 -9l-10 -5l-12 -1l-28 -1l-29 1l-36 2l-32 15l-23 21l-13 22l-13 27l-5 27l1 315l6 158l14 158l7 25l10 22l7 12l12 8l15 7l23 10l24 4l43 -5l28 -15l23 -23
l11 -21v-21l-4 -11l-9 -7h-12l-9 7l-7 13l-8 22l-6 10l-12 7l-14 3l-15 -3l-11 -11l-10 -15l-30 -73l-10 -38l-5 -37l-4 -503l9 -24l13 -17l19 -11l36 -10h16l13 7l10 13l6 18l-15 521l-9 6h-11l-15 -1l-16 2l-11 7z" />
    <glyph glyph-name="H" unicode="H" horiz-adv-x="385" 
d="M57 996l1 7l-1 10l3 11l9 7h12l9 -7l4 -11l1 -14l-1 -46l-3 -24l-6 -36l1 -9l6 -4h11l26 7l26 4l27 1l27 -1l11 2l7 9l1 12l3 117l4 13l8 9l11 5l10 -6l5 -10l6 -5h11l10 -4l6 -9l1 -11l-83 -759l-9 -5h-10l-12 6l-6 12l-2 13l10 264l34 277l-3 9l-10 4h-12l-35 -7
l-34 -6l-40 -5l-11 -4l-6 -10l-2 -11l-11 -348l3 -116v-48l-4 -12l-9 -7l-12 -3l-13 -2l-12 7l-8 11l-2 14l10 539l10 154l3 11l8 7z" />
    <glyph glyph-name="I" unicode="I" horiz-adv-x="176" 
d="M47 1010l4 15l4 13l7 10l12 3l12 -4l7 -9v-12l-51 -767l-10 -6h-12l-12 8l-8 13l-2 13l16 342l2 170l-1 171l3 20l5 12l10 5z" />
    <glyph glyph-name="J" unicode="J" horiz-adv-x="335" 
d="M64 511l5 -9l-1 -11l-13 -78l-1 -26l3 -22l12 -20l19 -17l17 -10l13 -3l14 7l16 13l15 20l8 21l19 106l10 107l1 107l-4 107l-10 113l-8 56l-13 58v13l8 12l11 5l14 -2l11 -9l6 -12l1 -13l6 -12l10 -16l4 -17l15 -248l-11 -294l-11 -47l-14 -47l-17 -46l-17 -29l-16 -15
l-18 -9l-26 -2l-25 2l-25 6l-18 11l-13 14l-24 51l-9 36l-2 24v24l2 49l4 21l8 14l16 14l12 7z" />
    <glyph glyph-name="K" unicode="K" horiz-adv-x="391" 
d="M75 889l10 3l8 10l62 69l59 71l14 14l13 7l13 -1l11 -6l5 -12l-2 -12l-10 -15l-28 -31l-30 -30l-11 -13l-4 -15v-44l52 -334l72 -346l-5 -11l-10 -5h-12l-14 5l-11 12l-6 14l-77 300l-60 310l-6 5l-8 -3l-9 -9l-13 -14l-9 -13l-2 -15l2 -525l-7 -10l-11 -3l-11 4l-14 8
l-13 9l-9 13l-2 15l4 77l37 629l9 25l8 9l10 4l10 -2l7 -9l-1 -11l-9 -56l-3 -28v-27z" />
    <glyph glyph-name="L" unicode="L" horiz-adv-x="303" 
d="M69 314l15 1l39 10l38 8l17 6l13 -3l10 -7l5 -12l-2 -13l-10 -12l-13 -7l-60 -24l-60 -20l-19 -9l-17 1l-12 8l-9 12l-3 14l28 738l9 37l3 10l7 7h10l11 -5l12 -12l3 -15l-22 -701z" />
    <glyph glyph-name="M" unicode="M" horiz-adv-x="404" 
d="M164 642l4 4l4 11l55 247l64 260l7 8h11l10 -5l9 -12l4 -15l-16 -338l2 -352l-4 -12l-10 -8l-7 -9l-1 -13l2 -34l4 -33l2 -12l-6 -11l-12 -5l-11 1l-11 7l-8 11l-2 14l-5 196l2 65l13 275l-4 -11l-56 -300l-10 -83l-3 -83l1 -42l4 -41l3 -23l-5 -16l-9 -11l-12 -5l-12 5
l-11 9l-7 15l-10 36l-63 651l-22 -663l-10 -8l-12 -1l-12 8l-9 13l-3 14l33 804l10 19l6 8l10 3l11 -5l9 -11l6 -15l26 -134l18 -133l13 -115l16 -113z" />
    <glyph glyph-name="N" unicode="N" horiz-adv-x="391" 
d="M219 397l2 5l1 10l49 643l9 11l12 4l13 -1l11 -4l6 -10l-1 -12l-34 -400l-21 -427l-8 -19l-10 -11l-12 -5h-14l-13 5l-11 12l-5 14l-49 355l-45 352l-16 -314l-5 -328l-11 -12l-10 -7l-5 -12l-8 -12l-12 -6h-12l-12 10l-8 13v14l17 387l53 412l9 5l11 -1l14 -3l12 -5
l7 -10l4 -11l40 -228l34 -315l13 -88z" />
    <glyph glyph-name="O" unicode="O" horiz-adv-x="341" 
d="M115 387l15 -4l33 3l7 7l4 11l19 182l11 183l12 326l-3 18l-10 17l-19 15l-21 6l-19 -2l-19 -12l-15 -13l-10 -18l-12 -70l-8 -69l-20 -230l-1 -115l6 -114l6 -25l9 -24l14 -21l14 -17l6 -17l-1 -10zM12 345l-7 22l-5 55v55l4 109l19 269l35 271l9 19l18 18l18 11l18 9
l25 5l28 -4l30 -9l25 -20l18 -24l9 -31l-9 -311l-27 -369l-6 -29l-8 -28l-9 -18l-13 -14l-18 -9l-36 -7l-37 -2l-37 5l-25 9z" />
    <glyph glyph-name="P" unicode="P" horiz-adv-x="372" 
d="M106 767l-5 -7l-1 -11l-14 -187l-6 -203l-5 -12l-11 -7l-7 -6l-2 -13l-1 -80l1 -21l-3 -12l-9 -9h-12l-11 5l-12 13l-2 15l53 718l10 26l9 22l2 12l6 9l10 4l11 -2l19 3l18 9l22 1l34 -8l32 -10l20 -8l14 -14l13 -20l5 -24l-3 -54l-4 -27l-5 -26l-13 -36l-10 -16l-15 -11
l-22 -9l-45 -4l-45 1zM114 862l13 -5l47 1l21 7l17 15l17 26l3 18l-3 15l-11 15l-22 19l-23 9l-25 -3l-15 -5l-12 -6l-7 -12l-2 -14l-1 -33v-32l1 -10z" />
    <glyph glyph-name="Q" unicode="Q" horiz-adv-x="372" 
d="M142 243l-2 -7l-2 -12l-3 -39v-39l3 -39l7 -38l-3 -17l-11 -14l-13 -8l-14 1l-15 9l-10 13l-2 14l2 84l5 84l-1 12l-6 10l-12 5l-20 10l-16 15l-9 17l-5 28l-10 29l-3 24v67l2 68l10 134l40 293l8 23l10 23l12 24l21 27l23 20l22 8l45 1l22 -3l22 -5l18 -13l20 -20
l13 -22l7 -23l3 -22l-16 -197l-46 -336l-27 -138l-8 -15l-13 -11zM146 308l13 4l10 11l5 15l51 299l33 299l-3 36l-8 20l-14 16l-16 9l-17 1l-20 -8l-23 -8l-19 -13l-15 -20l-9 -21l-6 -19l-19 -146l-11 -146l-9 -307l3 -11l6 -7l7 1l3 9l2 13l44 424l7 9l12 3l13 -5l11 -11
l5 -16l-2 -20l-23 -197l-14 -206z" />
    <glyph glyph-name="R" unicode="R" horiz-adv-x="372" 
d="M220 300l-2 -5l1 -10v-11l-2 -5h-6l-7 6l-5 12l-37 200l-22 100l-35 112l-4 3l-2 -5l-1 -11l-16 -208l-36 -238l-10 -7h-13l-10 7l-8 13l-2 15l44 714l13 31l8 11l15 7l29 5l34 -3l35 -6l25 -7l25 -10l19 -13l19 -17l21 -27l10 -27l-2 -32l-6 -20l-19 -34l-16 -12
l-20 -11l-31 -11l-31 -5l-12 -1l-7 -3l-3 -8l3 -11l68 -301l80 -314l-5 -11l-10 -8l-13 1l-11 10l-7 12l-33 121zM123 973l-3 -15l-9 -84v-13l6 -9l11 -7l22 -2h24l24 6l21 10l17 17l11 21l5 16l-2 16l-11 16l-23 18l-21 14l-23 4l-43 -5z" />
    <glyph glyph-name="S" unicode="S" horiz-adv-x="379" 
d="M12 377l13 2l10 -5l7 -8l2 -12l7 -64l7 -11l11 -6l13 -2l23 3l22 6l18 11l13 17l13 32l37 243l24 245l-3 20l-5 11l-10 7l-12 1l-30 1l-31 -1l-36 8l-17 9l-13 16l-8 20l-4 23l-2 23l3 29l8 29l8 17l13 13l15 7l24 7l24 4l26 1l25 -1l26 -4l39 -8l10 -8l4 -11l-3 -11
l-11 -8l-12 -1l-42 6l-42 2l-18 -4l-16 -9l-10 -16l-5 -20v-26l6 -17l9 -11l12 -5l14 -1l33 1l31 6l30 3l12 -3l9 -9l1 -12l2 -15l16 -34l9 -24l1 -25l-108 -542l-13 -24l-15 -14l-16 -5l-28 -5h-30l-35 8l-34 13l-14 7l-10 13l-3 14v89z" />
    <glyph glyph-name="T" unicode="T" horiz-adv-x="379" 
d="M109 208l-8 1l-10 6l-10 13l-1 13l36 740l-8 4h-11l-42 -4l-23 -1l-12 4l-10 11l-10 13l-6 12l4 12l9 7l11 1l108 9l108 6l37 4l12 -3l9 -7l4 -10l-4 -12l-9 -9l-12 -6l-13 -12l-15 -5l-38 -8l-12 -2l-7 -6l-2 -12l-37 -367l-28 -381z" />
    <glyph glyph-name="U" unicode="U" horiz-adv-x="328" 
d="M135 310l15 6l13 13l11 20l11 31l6 31l9 127v63l-2 63v22l16 170l22 170l5 14l9 11l12 2l10 -5l6 -10l4 -14l-16 -88l-11 -88l-8 -198l2 -15l-2 -19l-12 -313l-6 -12l-12 -9l-16 -8l-31 -13l-33 -6l-25 2l-21 11l-19 19l-24 31l-18 32l-19 56l-7 29l-1 29l37 495l6 8
l10 1l10 -4l6 -10l2 -13l3 -25l6 -20l-17 -479l6 -27l7 -27l5 -14l12 -13l21 -17z" />
    <glyph glyph-name="V" unicode="V" horiz-adv-x="366" 
d="M81 415l4 5l3 11l13 41l39 161l-5 26l-5 29l8 30l10 18l13 17l11 19l7 20l3 24v24l19 89l22 91l12 21l5 16l2 17l6 15l9 12l12 4l12 -3l9 -9l2 -11l-3 -12v-21l-25 -59l-20 -60l-9 -32l-6 -31l-2 -32v-31l-3 -32l-16 -30l-12 -31l-42 -237l-53 -249l-7 -11l-13 -7l-12 3
l-10 10l-9 12l-7 25l-27 330l-13 359l7 5l11 -2l6 -10l3 -11z" />
    <glyph glyph-name="W" unicode="W" horiz-adv-x="448" 
d="M61 462l4 4l4 10l87 239l13 25l5 20l3 9l8 4l10 -1l12 -5l7 -11l2 -12l20 -157l6 -78l4 -89l2 -4l4 4l1 11l44 300l36 315l7 8l8 8l4 12l4 20l5 10l9 6l11 -1l11 -5l6 -10l1 -13l-8 -43l-122 -805l-10 -8h-12l-17 4l-11 4l-9 9l-2 12l2 88l-3 88l-16 187l-4 5l-4 -5
l-3 -11l-54 -171l-56 -182l-10 -8l-11 -2l-13 -2l-13 -4l-11 2l-9 9l-3 11l2 14l9 31l10 31l-1 25l-10 462l10 154l3 13l6 9l10 2l10 -5l7 -9l1 -12l-4 -250z" />
    <glyph glyph-name="X" unicode="X" horiz-adv-x="385" 
d="M163 872l5 3l4 10l30 85l18 43l20 42l7 11l10 4l12 -1l14 -6l11 -8l5 -12l-3 -13l-29 -72l-25 -73l-46 -144l-3 -31l43 -225l60 -236l-5 -9l-11 -4l-12 2l-11 10l-5 14l-53 207l-7 3l-10 -1l-13 4l-9 10l-4 14l-4 24l-2 10l-3 5l-4 -5l-3 -10l-39 -147l-39 -159l-9 -10
l-13 -3l-13 3l-16 5l-11 10l-4 13l4 12l53 155l39 154l11 60l6 61l1 60l-3 60l-13 121l-22 139l3 11l7 5h10l10 -4l13 -10l9 -17l18 -79l16 -80z" />
    <glyph glyph-name="Y" unicode="Y" horiz-adv-x="391" 
d="M178 932l6 4l4 11l22 77l11 19l13 20l8 13l10 8l11 -1l12 -8l7 -12l-1 -14l-81 -263l-61 -263l-25 -137l-6 -69l-1 -34v-34l-1 -12l-7 -10l-12 -6l-13 -1l-16 -5l-12 1l-11 10l-7 13v15l52 290l82 304l-6 11l-12 13l-62 56l-78 77l-6 12v12l4 8l9 1l11 -3l33 -15l32 -13
l19 -9l18 -13l22 -20l19 -22z" />
    <glyph glyph-name="Z" unicode="Z" horiz-adv-x="429" 
d="M95 280l5 -2l10 2h120l39 4l16 -1l10 -5l7 -9l-3 -10l-9 -7l-11 -2l-15 -5l-12 -9l-15 -4l-41 2l-43 -2l-84 -10l-42 5l-12 6l-9 11l-4 13l1 17l53 171l64 171l157 365l-5 3h-10l-25 -5l-25 -1l-25 1l-50 4l-24 5l-13 6l-8 11l-3 12l5 10l9 4l7 5l3 10l3 11l7 6h10l37 -4
l37 -2l72 3l23 -4l15 -8l11 -14l9 -18l5 -14l-3 -13l-210 -542l-13 -52l-20 -104z" />
    <glyph glyph-name="bracketleft" unicode="[" horiz-adv-x="328" 
d="M56 1047l13 2l11 -1l10 6l9 7l15 2l34 -2h35l39 -3l12 -5l9 -11l1 -12l-6 -10l-12 -7l-14 -4l-107 -1l-9 -2l-4 -7l-1 -10l-39 -692l8 -3l11 2l41 6l40 10l16 2l11 -4l9 -9l4 -12l-1 -12l-7 -9l-11 -4l-10 -6l-7 -11l-11 -9l-15 -3l-25 -1l-18 -6l-18 -8l-38 -16l-12 -2
l-10 5l-5 9v11l26 720l20 86z" />
    <glyph glyph-name="bracketright" unicode="]" horiz-adv-x="328" 
d="M19 249l11 14l14 11l16 6l43 4l12 3l6 8l1 13l2 39v41l8 152l16 153l56 316l-2 10l-5 3h-11l-44 -2l-44 2l-19 5l-10 6l-7 12l1 11l7 6l12 2l118 11l15 -1l15 -8l10 -13l2 -15l-40 -407l-29 -420l-7 -8l-9 -2l-10 5l-5 11l-4 10l-9 5l-12 2h-31l-32 -2l-16 -2l-11 4z" />
    <glyph glyph-name="a" unicode="a" horiz-adv-x="404" 
d="M20 313l-12 6l-4 10l1 13l16 71l14 70l132 535l10 7l11 -3l7 -9l3 -12l1 -29l24 -99l31 -101l8 -30l6 -31l10 -61l14 -124l16 -110l23 -112l6 -16l-1 -13l-8 -8l-11 -6l-13 -5l-12 3l-9 10l-4 12l-63 428l-6 8l-11 4h-13l-52 -12l-8 -6l-2 -12l-87 -369zM166 897l-6 -11
l-4 -19l-14 -80l3 -7l9 -2l16 -2h22l6 5l1 10l-3 12l-10 39l-15 50z" />
    <glyph glyph-name="b" unicode="b" horiz-adv-x="316" 
d="M178 773l3 -4l10 -5l19 -13l12 -14l7 -19l3 -36v-36l-23 -154l-34 -154l-8 -18l-14 -14l-23 -15l-22 -10l-21 -9l-44 -15h-19l-15 7l-8 10l-1 14l21 741l8 8l9 -2l10 -8l15 -10l44 -14l43 -18l26 -14l22 -23l9 -20l3 -29l-3 -44l-3 -21l-5 -22l-14 -25zM56 315h13l26 10
l15 11l13 13l8 18l33 156l12 78l7 78l-1 24l-3 12l-8 9l-11 5l-52 11l-11 1l-8 -3l-3 -9l1 -10l-3 -161l-7 -161l-4 -15l-12 -14l-7 -15l-2 -21v-10zM79 962l-2 -14l9 -151l4 -6l10 -1l12 3l15 5l14 8l10 15l12 33l2 28v27l-2 13l-6 11l-12 8l-22 10l-22 9l-11 3z" />
    <glyph glyph-name="c" unicode="c" horiz-adv-x="303" 
d="M196 910l-13 8l-9 11l-6 15l-8 13l-13 6l-16 3l-13 -1l-12 -8l-7 -13l-6 -16l-11 -99l-5 -100v-49l1 -50l6 -111l-6 -8l-10 -5l-11 -1l-6 -5l-2 -10l5 -9l7 -11v-45l1 -32l4 -21l14 -19l31 -30l14 -11l14 -4l13 6l13 12l8 18l3 13l8 10l13 5l12 -2l8 -8l5 -11l-1 -12
l-7 -27l-11 -17l-12 -14l-9 -12l-13 -10l-15 -4l-34 2l-31 3l-29 16l-23 17l-16 22l-10 19l-5 19l9 581l7 26l18 29l18 16l20 8l23 4l24 1l43 -6l21 -9l13 -14l9 -17l6 -34v-13l-5 -10z" />
    <glyph glyph-name="d" unicode="d" 
d="M84 997l5 9l5 8l9 2l11 -4l11 -10l9 -15l9 -16l31 -40l7 -23l15 -203l3 -102l-5 -102l-5 -26l-8 -26l-21 -52l-16 -32l-20 -33l-13 -17l-15 -14l-25 -18l-24 -13l-16 -6l-13 3l-10 8l-4 13l3 11l12 334v346l6 12l12 7l13 2l20 -3h14zM66 355l13 13l13 17l11 18l18 34
l12 32l8 32l2 44l1 45l-5 165l-18 164l-4 14l-10 11l-15 7l-10 5l-8 1l-3 -6l1 -11l12 -71l7 -72l1 -36v-36l-3 -36l-5 -36l-20 -139l-6 -104l1 -36l1 -10l1 -8z" />
    <glyph glyph-name="e" unicode="e" horiz-adv-x="316" 
d="M235 946l-5 -10l-11 -8l-12 -4l-54 -4l-53 -1l-24 -2l-9 -4l-4 -7v-11l4 -23l3 -38l3 -9l6 -4l11 2l47 6l28 2l29 -2l14 -5l9 -7l3 -11v-12l-4 -13l-10 -10l-14 -4l-49 -3l-25 -1l-24 -3l-12 -4l-6 -7v-122l-2 -111l-10 -235l7 -10l12 -8l18 -5h43l33 -3l12 -5l8 -10
l1 -12l6 -12l7 -10v-12l-7 -11l-13 -6l-14 -3h-50l-24 1l-25 3l-28 9l-25 21l-14 15l-6 16l22 329l1 165l-7 165l2 29l9 17l13 13l18 6l64 6l64 3l24 -5l11 -5z" />
    <glyph glyph-name="f" unicode="f" 
d="M210 819l-12 -13l-11 -5l-25 -3l-32 -3l-33 -6l-11 -4l-6 -10l-2 -11l-15 -469l-6 -14l-15 -15l-13 -5l-13 2l-10 11l-4 14l1 25v75l18 573l7 22l4 18l6 11l10 6l12 2l22 -4l22 -3l45 -1h41l16 -5l11 -12l5 -12l-4 -11l-10 -6l-12 -1l-61 3l-23 -5l-15 -9l-10 -15l-6 -18
l-3 -36l3 -36l2 -9l6 -4l11 1l39 7l39 1l15 -2l10 -7z" />
    <glyph glyph-name="g" unicode="g" horiz-adv-x="316" 
d="M101 857l6 8l11 5l13 3l33 3l33 -1l23 -2l13 -8l10 -12l1 -14l-10 -128l-2 -128l2 -257l-3 -42l-20 -50l-6 -9l-10 -5l-12 -1l-28 -1l-29 1l-36 2l-32 15l-23 21l-13 22l-13 27l-5 27l1 315l6 158l14 158l7 25l10 22l7 12l12 8l15 7l23 10l24 4l43 -5l28 -15l23 -23
l11 -21v-21l-4 -11l-9 -7h-12l-9 7l-7 13l-8 22l-6 10l-12 7l-14 3l-15 -3l-11 -11l-10 -15l-30 -73l-10 -38l-5 -37l-4 -503l9 -24l13 -17l19 -11l36 -10h16l13 7l10 13l6 18l-15 521l-9 6h-11l-15 -1l-16 2l-11 7z" />
    <glyph glyph-name="h" unicode="h" horiz-adv-x="385" 
d="M57 996l1 7l-1 10l3 11l9 7h12l9 -7l4 -11l1 -14l-1 -46l-3 -24l-6 -36l1 -9l6 -4h11l26 7l26 4l27 1l27 -1l11 2l7 9l1 12l3 117l4 13l8 9l11 5l10 -6l5 -10l6 -5h11l10 -4l6 -9l1 -11l-83 -759l-9 -5h-10l-12 6l-6 12l-2 13l10 264l34 277l-3 9l-10 4h-12l-35 -7
l-34 -6l-40 -5l-11 -4l-6 -10l-2 -11l-11 -348l3 -116v-48l-4 -12l-9 -7l-12 -3l-13 -2l-12 7l-8 11l-2 14l10 539l10 154l3 11l8 7z" />
    <glyph glyph-name="i" unicode="i" horiz-adv-x="176" 
d="M47 1010l4 15l4 13l7 10l12 3l12 -4l7 -9v-12l-51 -767l-10 -6h-12l-12 8l-8 13l-2 13l16 342l2 170l-1 171l3 20l5 12l10 5z" />
    <glyph glyph-name="j" unicode="j" horiz-adv-x="335" 
d="M64 511l5 -9l-1 -11l-13 -78l-1 -26l3 -22l12 -20l19 -17l17 -10l13 -3l14 7l16 13l15 20l8 21l19 106l10 107l1 107l-4 107l-10 113l-8 56l-13 58v13l8 12l11 5l14 -2l11 -9l6 -12l1 -13l6 -12l10 -16l4 -17l15 -248l-11 -294l-11 -47l-14 -47l-17 -46l-17 -29l-16 -15
l-18 -9l-26 -2l-25 2l-25 6l-18 11l-13 14l-24 51l-9 36l-2 24v24l2 49l4 21l8 14l16 14l12 7z" />
    <glyph glyph-name="k" unicode="k" horiz-adv-x="391" 
d="M75 889l10 3l8 10l62 69l59 71l14 14l13 7l13 -1l11 -6l5 -12l-2 -12l-10 -15l-28 -31l-30 -30l-11 -13l-4 -15v-44l52 -334l72 -346l-5 -11l-10 -5h-12l-14 5l-11 12l-6 14l-77 300l-60 310l-6 5l-8 -3l-9 -9l-13 -14l-9 -13l-2 -15l2 -525l-7 -10l-11 -3l-11 4l-14 8
l-13 9l-9 13l-2 15l4 77l37 629l9 25l8 9l10 4l10 -2l7 -9l-1 -11l-9 -56l-3 -28v-27z" />
    <glyph glyph-name="l" unicode="l" horiz-adv-x="303" 
d="M69 314l15 1l39 10l38 8l17 6l13 -3l10 -7l5 -12l-2 -13l-10 -12l-13 -7l-60 -24l-60 -20l-19 -9l-17 1l-12 8l-9 12l-3 14l28 738l9 37l3 10l7 7h10l11 -5l12 -12l3 -15l-22 -701z" />
    <glyph glyph-name="m" unicode="m" horiz-adv-x="404" 
d="M164 642l4 4l4 11l55 247l64 260l7 8h11l10 -5l9 -12l4 -15l-16 -338l2 -352l-4 -12l-10 -8l-7 -9l-1 -13l2 -34l4 -33l2 -12l-6 -11l-12 -5l-11 1l-11 7l-8 11l-2 14l-5 196l2 65l13 275l-4 -11l-56 -300l-10 -83l-3 -83l1 -42l4 -41l3 -23l-5 -16l-9 -11l-12 -5l-12 5
l-11 9l-7 15l-10 36l-63 651l-22 -663l-10 -8l-12 -1l-12 8l-9 13l-3 14l33 804l10 19l6 8l10 3l11 -5l9 -11l6 -15l26 -134l18 -133l13 -115l16 -113z" />
    <glyph glyph-name="n" unicode="n" horiz-adv-x="391" 
d="M219 397l2 5l1 10l49 643l9 11l12 4l13 -1l11 -4l6 -10l-1 -12l-34 -400l-21 -427l-8 -19l-10 -11l-12 -5h-14l-13 5l-11 12l-5 14l-49 355l-45 352l-16 -314l-5 -328l-11 -12l-10 -7l-5 -12l-8 -12l-12 -6h-12l-12 10l-8 13v14l17 387l53 412l9 5l11 -1l14 -3l12 -5
l7 -10l4 -11l40 -228l34 -315l13 -88z" />
    <glyph glyph-name="o" unicode="o" horiz-adv-x="341" 
d="M115 387l15 -4l33 3l7 7l4 11l19 182l11 183l12 326l-3 18l-10 17l-19 15l-21 6l-19 -2l-19 -12l-15 -13l-10 -18l-12 -70l-8 -69l-20 -230l-1 -115l6 -114l6 -25l9 -24l14 -21l14 -17l6 -17l-1 -10zM12 345l-7 22l-5 55v55l4 109l19 269l35 271l9 19l18 18l18 11l18 9
l25 5l28 -4l30 -9l25 -20l18 -24l9 -31l-9 -311l-27 -369l-6 -29l-8 -28l-9 -18l-13 -14l-18 -9l-36 -7l-37 -2l-37 5l-25 9z" />
    <glyph glyph-name="p" unicode="p" horiz-adv-x="372" 
d="M106 767l-5 -7l-1 -11l-14 -187l-6 -203l-5 -12l-11 -7l-7 -6l-2 -13l-1 -80l1 -21l-3 -12l-9 -9h-12l-11 5l-12 13l-2 15l53 718l10 26l9 22l2 12l6 9l10 4l11 -2l19 3l18 9l22 1l34 -8l32 -10l20 -8l14 -14l13 -20l5 -24l-3 -54l-4 -27l-5 -26l-13 -36l-10 -16l-15 -11
l-22 -9l-45 -4l-45 1zM114 862l13 -5l47 1l21 7l17 15l17 26l3 18l-3 15l-11 15l-22 19l-23 9l-25 -3l-15 -5l-12 -6l-7 -12l-2 -14l-1 -33v-32l1 -10z" />
    <glyph glyph-name="q" unicode="q" horiz-adv-x="372" 
d="M142 243l-2 -7l-2 -12l-3 -39v-39l3 -39l7 -38l-3 -17l-11 -14l-13 -8l-14 1l-15 9l-10 13l-2 14l2 84l5 84l-1 12l-6 10l-12 5l-20 10l-16 15l-9 17l-5 28l-10 29l-3 24v67l2 68l10 134l40 293l8 23l10 23l12 24l21 27l23 20l22 8l45 1l22 -3l22 -5l18 -13l20 -20
l13 -22l7 -23l3 -22l-16 -197l-46 -336l-27 -138l-8 -15l-13 -11zM146 308l13 4l10 11l5 15l51 299l33 299l-3 36l-8 20l-14 16l-16 9l-17 1l-20 -8l-23 -8l-19 -13l-15 -20l-9 -21l-6 -19l-19 -146l-11 -146l-9 -307l3 -11l6 -7l7 1l3 9l2 13l44 424l7 9l12 3l13 -5l11 -11
l5 -16l-2 -20l-23 -197l-14 -206z" />
    <glyph glyph-name="r" unicode="r" horiz-adv-x="372" 
d="M220 300l-2 -5l1 -10v-11l-2 -5h-6l-7 6l-5 12l-37 200l-22 100l-35 112l-4 3l-2 -5l-1 -11l-16 -208l-36 -238l-10 -7h-13l-10 7l-8 13l-2 15l44 714l13 31l8 11l15 7l29 5l34 -3l35 -6l25 -7l25 -10l19 -13l19 -17l21 -27l10 -27l-2 -32l-6 -20l-19 -34l-16 -12
l-20 -11l-31 -11l-31 -5l-12 -1l-7 -3l-3 -8l3 -11l68 -301l80 -314l-5 -11l-10 -8l-13 1l-11 10l-7 12l-33 121zM123 973l-3 -15l-9 -84v-13l6 -9l11 -7l22 -2h24l24 6l21 10l17 17l11 21l5 16l-2 16l-11 16l-23 18l-21 14l-23 4l-43 -5z" />
    <glyph glyph-name="s" unicode="s" horiz-adv-x="379" 
d="M12 377l13 2l10 -5l7 -8l2 -12l7 -64l7 -11l11 -6l13 -2l23 3l22 6l18 11l13 17l13 32l37 243l24 245l-3 20l-5 11l-10 7l-12 1l-30 1l-31 -1l-36 8l-17 9l-13 16l-8 20l-4 23l-2 23l3 29l8 29l8 17l13 13l15 7l24 7l24 4l26 1l25 -1l26 -4l39 -8l10 -8l4 -11l-3 -11
l-11 -8l-12 -1l-42 6l-42 2l-18 -4l-16 -9l-10 -16l-5 -20v-26l6 -17l9 -11l12 -5l14 -1l33 1l31 6l30 3l12 -3l9 -9l1 -12l2 -15l16 -34l9 -24l1 -25l-108 -542l-13 -24l-15 -14l-16 -5l-28 -5h-30l-35 8l-34 13l-14 7l-10 13l-3 14v89z" />
    <glyph glyph-name="t" unicode="t" horiz-adv-x="379" 
d="M109 208l-8 1l-10 6l-10 13l-1 13l36 740l-8 4h-11l-42 -4l-23 -1l-12 4l-10 11l-10 13l-6 12l4 12l9 7l11 1l108 9l108 6l37 4l12 -3l9 -7l4 -10l-4 -12l-9 -9l-12 -6l-13 -12l-15 -5l-38 -8l-12 -2l-7 -6l-2 -12l-37 -367l-28 -381z" />
    <glyph glyph-name="u" unicode="u" horiz-adv-x="328" 
d="M135 310l15 6l13 13l11 20l11 31l6 31l9 127v63l-2 63v22l16 170l22 170l5 14l9 11l12 2l10 -5l6 -10l4 -14l-16 -88l-11 -88l-8 -198l2 -15l-2 -19l-12 -313l-6 -12l-12 -9l-16 -8l-31 -13l-33 -6l-25 2l-21 11l-19 19l-24 31l-18 32l-19 56l-7 29l-1 29l37 495l6 8
l10 1l10 -4l6 -10l2 -13l3 -25l6 -20l-17 -479l6 -27l7 -27l5 -14l12 -13l21 -17z" />
    <glyph glyph-name="v" unicode="v" horiz-adv-x="366" 
d="M81 415l4 5l3 11l13 41l39 161l-5 26l-5 29l8 30l10 18l13 17l11 19l7 20l3 24v24l19 89l22 91l12 21l5 16l2 17l6 15l9 12l12 4l12 -3l9 -9l2 -11l-3 -12v-21l-25 -59l-20 -60l-9 -32l-6 -31l-2 -32v-31l-3 -32l-16 -30l-12 -31l-42 -237l-53 -249l-7 -11l-13 -7l-12 3
l-10 10l-9 12l-7 25l-27 330l-13 359l7 5l11 -2l6 -10l3 -11z" />
    <glyph glyph-name="w" unicode="w" horiz-adv-x="448" 
d="M61 462l4 4l4 10l87 239l13 25l5 20l3 9l8 4l10 -1l12 -5l7 -11l2 -12l20 -157l6 -78l4 -89l2 -4l4 4l1 11l44 300l36 315l7 8l8 8l4 12l4 20l5 10l9 6l11 -1l11 -5l6 -10l1 -13l-8 -43l-122 -805l-10 -8h-12l-17 4l-11 4l-9 9l-2 12l2 88l-3 88l-16 187l-4 5l-4 -5
l-3 -11l-54 -171l-56 -182l-10 -8l-11 -2l-13 -2l-13 -4l-11 2l-9 9l-3 11l2 14l9 31l10 31l-1 25l-10 462l10 154l3 13l6 9l10 2l10 -5l7 -9l1 -12l-4 -250z" />
    <glyph glyph-name="x" unicode="x" horiz-adv-x="385" 
d="M163 872l5 3l4 10l30 85l18 43l20 42l7 11l10 4l12 -1l14 -6l11 -8l5 -12l-3 -13l-29 -72l-25 -73l-46 -144l-3 -31l43 -225l60 -236l-5 -9l-11 -4l-12 2l-11 10l-5 14l-53 207l-7 3l-10 -1l-13 4l-9 10l-4 14l-4 24l-2 10l-3 5l-4 -5l-3 -10l-39 -147l-39 -159l-9 -10
l-13 -3l-13 3l-16 5l-11 10l-4 13l4 12l53 155l39 154l11 60l6 61l1 60l-3 60l-13 121l-22 139l3 11l7 5h10l10 -4l13 -10l9 -17l18 -79l16 -80z" />
    <glyph glyph-name="y" unicode="y" horiz-adv-x="391" 
d="M178 932l6 4l4 11l22 77l11 19l13 20l8 13l10 8l11 -1l12 -8l7 -12l-1 -14l-81 -263l-61 -263l-25 -137l-6 -69l-1 -34v-34l-1 -12l-7 -10l-12 -6l-13 -1l-16 -5l-12 1l-11 10l-7 13v15l52 290l82 304l-6 11l-12 13l-62 56l-78 77l-6 12v12l4 8l9 1l11 -3l33 -15l32 -13
l19 -9l18 -13l22 -20l19 -22z" />
    <glyph glyph-name="z" unicode="z" horiz-adv-x="429" 
d="M95 280l5 -2l10 2h120l39 4l16 -1l10 -5l7 -9l-3 -10l-9 -7l-11 -2l-15 -5l-12 -9l-15 -4l-41 2l-43 -2l-84 -10l-42 5l-12 6l-9 11l-4 13l1 17l53 171l64 171l157 365l-5 3h-10l-25 -5l-25 -1l-25 1l-50 4l-24 5l-13 6l-8 11l-3 12l5 10l9 4l7 5l3 10l3 11l7 6h10l37 -4
l37 -2l72 3l23 -4l15 -8l11 -14l9 -18l5 -14l-3 -13l-210 -542l-13 -52l-20 -104z" />
    <glyph glyph-name="Ograve" unicode="&#xd2;" 
d="M203 743l-16 10l-10 16l-17 33l-15 32l-24 64l-11 46l-8 46l-1 14l4 12l11 9l20 13l11 5h12l8 -8l3 -11l-2 -37l1 -37l5 -37l9 -37l33 -104l1 -12l-3 -11zM85 743l-16 10l-10 16l-17 33l-15 32l-24 64l-10 46l-8 46l-1 14l4 12l11 9l19 13l11 5h12l8 -8l3 -11l-2 -37
l1 -37l5 -37l9 -37l33 -104l1 -12l-3 -11z" />
    <glyph glyph-name="Oacute" unicode="&#xd3;" 
d="M-2 743l-11 6l-3 11l1 12l33 104l8 37l5 37l1 37l-1 37l2 11l8 8h12l12 -5l19 -13l11 -9l4 -12v-14l-8 -46l-12 -46l-24 -64l-15 -32l-17 -33l-10 -16zM115 743l-11 6l-3 11l1 12l34 104l8 37l5 37l1 37l-1 37l2 11l8 8h12l12 -5l19 -13l11 -9l4 -12l-1 -14l-7 -46
l-12 -46l-24 -64l-15 -32l-17 -33l-10 -16z" />
    <glyph glyph-name="Ocircumflex" unicode="&#xd4;" horiz-adv-x="208" 
d="M-2 743l-11 6l-3 11l1 12l33 104l8 37l5 37l1 37l-1 37l2 11l8 8h12l12 -5l19 -13l11 -9l4 -12v-14l-8 -46l-12 -46l-24 -64l-15 -32l-17 -33l-10 -16z" />
    <glyph glyph-name="Otilde" unicode="&#xd5;" horiz-adv-x="208" 
d="M-2 743l-11 6l-3 11l1 12l33 104l8 37l5 37l1 37l-1 37l2 11l8 8h12l12 -5l19 -13l11 -9l4 -12v-14l-8 -46l-12 -46l-24 -64l-15 -32l-17 -33l-10 -16z" />
    <glyph glyph-name="quoteleft" unicode="&#x2018;" horiz-adv-x="208" 
d="M108 737l11 6l3 11l-1 12l-33 104l-8 37l-5 37l-1 37l1 37l-2 11l-8 8h-12l-12 -5l-19 -13l-11 -9l-4 -12v-14l8 -46l12 -46l24 -64l15 -32l17 -33l10 -16z" />
    <glyph glyph-name="quoteright" unicode="&#x2019;" horiz-adv-x="208" 
d="M-2 743l-11 6l-3 11l1 12l33 104l8 37l5 37l1 37l-1 37l2 11l8 8h12l12 -5l19 -13l11 -9l4 -12v-14l-8 -46l-12 -46l-24 -64l-15 -32l-17 -33l-10 -16z" />
    <glyph glyph-name="quotedblleft" unicode="&#x201c;" 
d="M203 743l-16 10l-10 16l-17 33l-15 32l-24 64l-11 46l-8 46l-1 14l4 12l11 9l20 13l11 5h12l8 -8l3 -11l-2 -37l1 -37l5 -37l9 -37l33 -104l1 -12l-3 -11zM85 743l-16 10l-10 16l-17 33l-15 32l-24 64l-10 46l-8 46l-1 14l4 12l11 9l19 13l11 5h12l8 -8l3 -11l-2 -37
l1 -37l5 -37l9 -37l33 -104l1 -12l-3 -11z" />
    <glyph glyph-name="quotedblright" unicode="&#x201d;" 
d="M-2 743l-11 6l-3 11l1 12l33 104l8 37l5 37l1 37l-1 37l2 11l8 8h12l12 -5l19 -13l11 -9l4 -12v-14l-8 -46l-12 -46l-24 -64l-15 -32l-17 -33l-10 -16zM115 743l-11 6l-3 11l1 12l34 104l8 37l5 37l1 37l-1 37l2 11l8 8h12l12 -5l19 -13l11 -9l4 -12l-1 -14l-7 -46
l-12 -46l-24 -64l-15 -32l-17 -33l-10 -16z" />
    <glyph glyph-name="glyph98" horiz-adv-x="550" 
 />
  </font>
</defs>
</svg>
